<?xml version="1.0" standalone="no"?>
<!DOCTYPE svg PUBLIC "-//W3C//DTD SVG 20010904//EN"
 "http://www.w3.org/TR/2001/REC-SVG-20010904/DTD/svg10.dtd">
<svg version="1.0" xmlns="http://www.w3.org/2000/svg"
 width="783.000000pt" height="783.000000pt" viewBox="0 0 783.000000 783.000000"
 preserveAspectRatio="xMidYMid meet">
<metadata>
Created by potrace 1.14, written by Peter Selinger 2001-2017
</metadata>
<g transform="translate(0.000000,783.000000) scale(0.100000,-0.100000)"
fill="#000000" stroke="none">
<path d="M3675 7823 c-33 -2 -123 -10 -200 -19 -733 -81 -1430 -372 -2015
-840 -157 -126 -428 -392 -556 -547 -612 -742 -931 -1669 -901 -2617 29 -867
323 -1665 863 -2340 126 -157 392 -428 547 -556 742 -612 1669 -931 2617 -901
867 29 1665 323 2340 863 157 126 428 392 556 547 612 742 931 1669 901 2617
-29 867 -323 1665 -863 2340 -126 157 -392 428 -547 556 -773 638 -1728 951
-2742 897z m-2025 -2723 c96 -6 199 -11 229 -13 l54 -2 672 -1519 673 -1518
-53 -117 c-49 -107 -55 -116 -81 -116 -27 0 -38 24 -614 1325 -322 729 -605
1361 -627 1405 -132 258 -309 447 -473 504 -47 16 -56 23 -58 47 l-4 27 54 -6
c29 -4 132 -11 228 -17z m1170 -5 c0 -19 -10 -29 -40 -45 -58 -30 -111 -80
-131 -125 -38 -83 -13 -244 69 -450 39 -99 653 -1500 676 -1541 10 -19 39 41
240 499 127 287 229 528 229 537 -3 28 -224 543 -284 660 -32 63 -81 145 -109
182 -76 103 -202 193 -333 237 -43 15 -53 22 -55 44 -4 32 -5 32 166 16 64 -5
184 -13 266 -17 l149 -7 638 -1518 637 -1517 -47 -118 c-47 -117 -47 -117 -81
-117 l-33 0 -391 926 c-215 510 -393 925 -396 924 -3 -2 -136 -303 -295 -669
-159 -366 -293 -662 -296 -658 -8 8 -1199 2709 -1206 2733 -4 15 15 18 174 24
98 4 216 11 263 15 47 4 109 8 138 9 49 1 52 0 52 -24z m1730 0 c0 -19 -10
-30 -49 -49 -114 -58 -151 -118 -151 -242 0 -90 23 -196 74 -337 73 -205 631
-1526 638 -1513 4 8 123 294 264 637 337 823 369 918 369 1124 0 98 -3 116
-26 165 -14 30 -38 69 -52 86 -24 28 -120 84 -169 98 -11 3 -18 15 -18 31 0
30 -12 29 195 10 244 -23 544 -19 783 11 l52 6 0 -28 c0 -24 -8 -34 -43 -53
-122 -70 -267 -214 -346 -344 -124 -207 -171 -314 -661 -1507 -189 -459 -346
-839 -350 -843 -6 -7 -1150 2709 -1150 2730 0 6 109 15 258 23 141 7 259 14
261 16 2 2 31 4 63 4 55 0 58 -1 58 -25z"/>
</g>
</svg>
